<?xml version="1.0" encoding="UTF-8" standalone="no"?>
<!DOCTYPE svg PUBLIC "-//W3C//DTD SVG 1.1//EN" "http://www.w3.org/Graphics/SVG/1.1/DTD/svg11.dtd">
<svg width="100%" height="100%" viewBox="0 0 420 300" version="1.1" xmlns="http://www.w3.org/2000/svg" xmlns:xlink="http://www.w3.org/1999/xlink" xml:space="preserve" xmlns:serif="http://www.serif.com/" style="fill-rule:evenodd;clip-rule:evenodd;stroke-linecap:square;stroke-linejoin:round;">
    <g transform="matrix(1.16661,0,0,1.16661,-34.9873,-38.8563)">
        <path d="M90,135C130,95 170,75 210,75C250,75 290,95 330,135M210,195C177.085,195 150,167.915 150,135C150,102.085 177.085,75 210,75C242.915,75 270,102.085 270,135C270,167.915 242.915,195 210,195M255,180L285,210M210,195L210,240M165,180L135,210" style="fill:none;fill-rule:nonzero;stroke:black;stroke-width:81px;"/>
    </g>
</svg>
